<svg xmlns="http://www.w3.org/2000/svg" width="31" height="15" viewBox="0 0 31 15">
    <g fill="none" fill-rule="evenodd" transform="translate(.97 .318)">
        <rect width="29.316" height="14.631" x=".003" y=".023" fill="#FFF" rx="1.6"/>
        <path fill="#BC2A1A" d="M29.315 7.328v5.641c-.001.825-.562 1.508-1.354 1.652-.112.02-.228.032-.341.032-.958.003-1.916.002-2.874.002-.169 0-.17 0-.17-.177v-.733c0-.183 0-.183.186-.183.714 0 1.428-.006 2.142.003a.912.912 0 0 0 .646-.247c.472-.426.777-.962.974-1.565a.31.31 0 0 0-.071-.313c-.118-.137-.238-.272-.355-.41a1.77 1.77 0 0 1-.296-.56c-.029-.081-.06-.16-.091-.24a.751.751 0 0 0-.423-.445c-.344-.148-.633-.386-.919-.626a.194.194 0 0 1-.074-.162c.002-.143 0-.287 0-.43 0-.157-.178-.377-.33-.41-.172-.037-.172-.037-.176-.211-.005-.191-.198-.423-.387-.453-.086-.014-.126-.057-.113-.14.03-.188-.082-.314-.182-.445-.045-.06-.119-.062-.179-.06-.165.005-.248-.085-.327-.22-1.274-2.167-2.553-4.33-3.83-6.495-.073-.121-.067-.132.072-.132 2.27 0 4.542-.003 6.813.001.803.001 1.449.536 1.62 1.327.028.128.04.26.04.392v5.607"/>
        <path fill="#1616DA" d="M4.574 11.185a1.124 1.124 0 0 0-2.25-.008 1.127 1.127 0 0 0 1.127 1.129 1.126 1.126 0 0 0 1.123-1.121m5.42-5.59h.303c.547 0 1.094.002 1.642-.003.103 0 .138.04.166.133a.57.57 0 0 1-.05.444c-.17.336-.323.68-.482 1.02-.06.13-.025.187.12.196.183.012.366.036.55.007.07-.011.12.027.15.087.142.29.187.597.149.916a.169.169 0 0 1-.128.15c-.622.192-1.042.623-1.369 1.155-.388.632-.591 1.33-.717 2.051-.096.55-.134 1.105-.147 1.663-.003.118.036.153.154.15.32-.006.64 0 .961-.003.078 0 .132.021.173.091.175.298.355.593.532.89.061.103.054.115-.067.115-.325.002-.649 0-.973 0H1.697A1.677 1.677 0 0 1 0 12.999V1.675C.002.773.758.022 1.669.022 6.948.021 12.23.022 17.51.019c.101 0 .166.035.226.112l2.76 3.551c.747.96 1.492 1.92 2.24 2.878.052.066.067.123.042.202-.063.203-.124.407-.178.613-.023.089-.054.092-.128.047a3.769 3.769 0 0 0-1.229-.5 2.169 2.169 0 0 0-.442-.047c-.79.002-1.579.001-2.368 0-.258 0-.364-.074-.429-.322-.069-.266-.05-.537-.017-.807.006-.054.033-.073.087-.066.046.006.093.005.14.006.068.002.097-.031.102-.098.048-.65.018-1.291-.173-1.92a2.619 2.619 0 0 0-1.332-1.605 4.635 4.635 0 0 0-2.105-.568c-.703-.014-1.37.133-1.944.563-.578.434-.883 1.03-1.005 1.727a2.355 2.355 0 0 0-.05.472c.002.091-.032.15-.109.201-.505.344-1.008.693-1.511 1.04-.031.022-.07.035-.094.097"/>
    </g>
</svg>
