<svg xmlns="http://www.w3.org/2000/svg" xmlns:xlink="http://www.w3.org/1999/xlink" width="18" height="25" viewBox="0 0 18 25">
    <defs>
        <path id="a" d="M17.633 12.1V.01H0v24.18h17.633z"/>
    </defs>
    <g fill="none" fill-rule="evenodd">
        <g transform="translate(.047 .584)">
            <mask id="b" fill="#fff">
                <use xlink:href="#a"/>
            </mask>
            <path fill="#1A3B73" d="M0 21.171a3.02 3.02 0 0 0 3.02 3.02h11.593a3.02 3.02 0 0 0 3.02-3.02V2.989c0-1.667-1.352-3.02-3.02-2.978H3.02C1.352-.03 0 1.321 0 2.99V21.17z" mask="url(#b)"/>
        </g>
        <path fill="#FFF" d="M3.066 1.243a2.33 2.33 0 0 0-2.33 2.33v18.182a2.33 2.33 0 0 0 2.33 2.33H14.66a2.33 2.33 0 0 0 2.33-2.33V3.573a2.33 2.33 0 0 0-2.33-2.33H3.066z"/>
        <path fill="#1A3B73" d="M3.066 1.597A1.976 1.976 0 0 0 1.09 3.573v18.182c0 1.092.885 1.976 1.976 1.976H14.66a1.976 1.976 0 0 0 1.976-1.976V3.573a1.976 1.976 0 0 0-1.976-1.976H3.066z"/>
        <path fill="#FFF" d="M4.986 14.966c1.17 0 2.118-.633 2.118-2.084 0-1.402-.948-2.085-2.118-2.085s-2.117.683-2.117 2.085c0 1.45.948 2.084 2.117 2.084"/>
        <path fill="#FFF" d="M9.578 5.889c.087.182.094.23.324.268l.036.003v.233H8.727V6.16c.07-.009.276-.003.276-.092 0-.04-.034-.114-.047-.154l-.09-.21H8.15l-.093.21a.395.395 0 0 0-.04.131c0 .1.183.1.263.112l.033.003v.233H7.285V6.16c.293-.026.356-.183.455-.385l.646-1.382h.517l.675 1.496zM6.81 5.101c-.112-.297-.248-.409-.631-.409-.387 0-.48.476-.48.772 0 .323.169.717.57.717.193 0 .291-.142.291-.34 0-.159-.134-.22-.282-.22V5.41h1.065v.213l-.042.006c-.21.029-.193.124-.193.304v.44c0 .085-.114.103-.238.034l-.163-.098c-.088.05-.148.098-.225.129-.098.038-.282.038-.394.038-.62 0-1.027-.468-1.027-1.034 0-.592.454-1.042 1.081-1.042.17 0 .435.055.58.134l.132-.111h.193l.014.606c0 .148-.185.174-.25.073zm-3.037.769c0 .204.004.268.402.285v.238H2.87v-.238c.258-.017.346-.076.346-.285v-.931c0-.21-.004-.265-.265-.288v-.255l.439.025c.312 0 .948-.118 1.25.059A.614.614 0 0 1 4.96 5c0 .5-.482.625-.92.625h-.267v.245zm1.678 16.425v.457H2.876v-.956h.333c.103 0 .124-.062.124-.152v-1.869c0-.076-.014-.166-.124-.166h-.36v-.962h1.155c-.533-.222-.678-.575-.678-.997V15.87c0-.104-.02-.166-.138-.166l-.332.001v-.971h4.391v.971l-.333-.001c-.117 0-.138.062-.138.166v1.779c0 .45-.217.914-.674 1.038.422.084.672.285.84.697.167.415.02.85-.274 1.155-.057.053-.131.092-.131.092.171.07.27.368.27.697l.013.42c.009.054.038.087.168.087l.314.002v.96h-.688c-.353 0-.983-.053-1.163-.503zm1.147-11.27v-.883h-.572c-.166 0-.221-.065-.221-.288V8.182c0-.124.04-.15.114-.15.218 0 .32.377.32.837l.957.002v-1.8H2.84v1.8l.951-.002c0-.488.165-.837.368-.837.088 0 .115.026.115.15v1.672c0 .203-.055.288-.22.288h-.559v.882h3.103z"/>
        <path fill="#1A3B73" d="M8.756 5.456l-.246-.553-.257.553h.503zm-4.873-.782c-.077 0-.112.028-.11.068v.54h.082a.764.764 0 0 0 .292-.034c.096-.043.113-.155.113-.25 0-.25-.145-.324-.377-.324z"/>
        <path fill="#CF4044" d="M4.986 14.74c1.045 0 1.891-.565 1.891-1.86 0-1.252-.846-1.862-1.89-1.862-1.045 0-1.891.61-1.891 1.861 0 1.296.846 1.86 1.89 1.86zm1.346-3.93v-.442h-.61c-.111 0-.197-.128-.197-.257V7.938c0-.111.146-.134.3-.134.318 0 .644.271.644.834l.496.001V7.28H3.076v1.36l.498-.001c0-.563.325-.834.643-.834.154 0 .3.023.3.134v2.173c0 .129-.086.257-.197.257h-.61v.441h2.622z"/>
        <path fill="#FFF" d="M5.007 14.25c.419 0 .758-.346.758-1.37 0-1.16-.34-1.373-.758-1.373-.42 0-.759.302-.759 1.372 0 1.115.34 1.371.759 1.371"/>
        <path fill="#1A3B73" d="M5.003 13.99c.266 0 .482-.28.482-1.11 0-.94-.216-1.111-.482-1.111s-.482.243-.482 1.11c0 .903.216 1.11.482 1.11"/>
        <path fill="#CF4044" d="M6.52 15.737c0-.221.1-.252.212-.252h.243l-.004-.522H5.42v.52h.28c.281 0 .248.127.248.288v1.924c-.026.205-.199.443-.692.443-.494 0-.721-.196-.721-.468v-1.933c0-.221.101-.252.212-.252h.34v-.522H3.103v.52h.212c.281 0 .248.127.248.288v1.916c0 .519.485.97 1.6.97 1.183 0 1.355-.557 1.355-1.081v-1.839z"/>
        <path fill="#1A3B73" d="M5.555 15.717c.07 0 .116.078.116.175v1.679c0 .178-.188.323-.42.323-.233 0-.422-.145-.422-.323v-1.68c0-.096.047-.174.117-.174h.609z"/>
        <path fill="#CF4044" d="M7.06 22.05c-.149 0-.394.016-.461-.101-.113-.257.029-.724-.133-1.025-.078-.166-.27-.26-.395-.316.149-.042.315-.134.434-.226.296-.254.298-.737.116-1.092-.166-.276-.457-.406-.901-.406l-2.631-.003-.001.51.327-.007c.084 0 .174.094.174.192l.001 2.26c0 .099-.091.192-.175.192l-.327-.006.001.51h2.116v-.51h-.403c-.084 0-.185-.11-.185-.208v-.931h.54c.166 0 .332.107.361.381.023.36-.019.54.106.857.166.341.474.435.807.435h.63v-.506z"/>
        <path fill="#1A3B73" d="M4.88 21.644s0-.09 0 0 .094.118.164.118h.379l-.02-.457c-.005-.125-.033-.173-.164-.173h-.35l-.009.512z"/>
        <path fill="#FFF" d="M5.165 19.388c.193 0 .47.09.52.323.028.182.012.365-.134.513a.52.52 0 0 1-.33.105h-.605v-.943l.55.002z"/>
        <path fill="#1A3B73" d="M5.427 19.9a.248.248 0 0 1-.235.25h-.33v-.542h.246c.115 0 .184.03.24.088.045.044.079.113.079.203"/>
        <path fill="#FFF" d="M9.371 2.822l4.656 2.932c-.143.554.268 1.015.075 1.543-.05.797-.914.956-1.383 1.451-.436.427-1.014.486-1.534.704l-.06-.017c-.125-.419-.494-.737-.645-1.148-.377-.143-.822-.176-1.182.016-.335.252-.52.654-.461 1.032.008.385.419.654.704.822-.369.26-.151.804-.185 1.148-.058 1.166 1.367 1.66 1.325 2.818-.109.754-.184 1.626.302 2.23.394.293.386.78.629 1.148.025.344.41.58.243.947.235.26-.184.286-.184.52.033.21-.202.177-.302.269-.285-.025-.453.285-.646.436l-.46.528a5.683 5.683 0 0 0-1.627 1.048c-.202.059-.461.05-.545.302-.068.1-.043.21-.06.319-.301.293-.536.645-.544 1.064.008.294.134.537.201.805h5.274c.176-.118.528-.134.503-.444-.126-.184-.428-.277-.486-.52.142-.134.427-.042.544-.243.06-1.375.244-2.759.462-4.1-.193-1.476-.537-2.884-.948-4.268a11.857 11.857 0 0 0-.578-2.255l.016-.143c.672-.763 1.007-1.668 1.652-2.456.478-.931.764-1.954 1.082-2.952-.034-.243.034-.545-.235-.67-.277-.227-.612-.06-.905-.16L9.096 2.493c-.353-.1-.74.408-.989.68-.05.084.117.217.227.284.419.118.505-.438.79-.648.04-.025.168-.035.247.013"/>
        <path fill="#1A3B73" d="M12.056 23.496c.084.109.228.115.27.233l-4.424.004s.021-.103.046-.17c.21-.596.704-.99 1.19-1.434.303.084.554.31.864.386.696-.889 1.694-1.593 2.432-2.457-.31 1.074-.495 2.273-.378 3.438m.537-13.558c-.176.277-.411.57-.662.78-.076-.092-.168-.185-.16-.319a7.18 7.18 0 0 1 .822-.46"/>
    </g>
</svg>
