<svg xmlns="http://www.w3.org/2000/svg" xmlns:xlink="http://www.w3.org/1999/xlink" width="26" height="29" viewBox="0 0 26 29">
    <defs>
        <path id="a" d="M0 0h27.98l-.148 24.347-3.058 1.802-.834 3.156L0 29.098z"/>
    </defs>
    <g fill="none" fill-rule="evenodd" transform="translate(-1.049 -.281)">
        <mask id="b" fill="#fff">
            <use xlink:href="#a"/>
        </mask>
        <g fill="#898B93" mask="url(#b)">
            <path d="M14.057 28.688c.384-.433.764-.85 1.128-1.28.145-.17.303-.284.517-.321.133-.023.262-.069.394-.098.908-.199 1.818-.383 2.722-.597 2.159-.513 3.96-1.645 5.305-3.5 1.506-2.076 1.944-4.416 1.447-6.958-.14-.715-.414-1.384-.677-2.055-.751-1.917-.798-3.858-.14-5.803.264-.78.616-1.528.927-2.29l.068-.17c-.569-.176-1.117-.361-1.674-.516-.771-.214-1.315-.708-1.651-1.449-.18-.398-.316-.82-.464-1.235-.177-.494-.347-.99-.523-1.497-.038.029-.067.05-.094.072-.608.526-1.21 1.059-1.826 1.575-.469.393-.997.666-1.605.715-.892.07-1.687-.228-2.373-.803-.427-.359-.801-.786-1.196-1.187-.093-.094-.172-.203-.262-.31-.062.061-.095.092-.127.125l-1 1.035c-.606.626-1.328 1.017-2.174 1.131-.838.113-1.56-.189-2.206-.724-.389-.322-.766-.66-1.147-.99L6.69.92c-.014.033-.023.054-.03.075-.298.834-.576 1.676-.899 2.498-.296.758-.806 1.312-1.577 1.557-.353.112-.708.219-1.061.328l-.757.236.055.143c.146.345.285.693.439 1.034.494 1.098.876 2.229.946 3.455a8.44 8.44 0 0 1-.163 2.277c-.147.679-.396 1.32-.653 1.959a8.8 8.8 0 0 0-.577 4.405 8.347 8.347 0 0 0 1.75 4.24c1.43 1.819 3.287 2.881 5.473 3.353.978.21 1.954.431 2.93.655.085.02.175.076.236.143.419.462.83.93 1.255 1.409zM1.865 5.378c.664-.207 1.322-.437 1.993-.614.828-.219 1.343-.772 1.636-1.578.331-.91.644-1.83.965-2.745l.058-.16.709.614c.52.451 1.038.907 1.563 1.352.92.78 1.914.861 2.967.327.36-.182.683-.42.962-.721.433-.467.865-.936 1.297-1.404l.082-.019c.028.055.045.12.085.162.49.507.963 1.036 1.482 1.51.591.539 1.297.824 2.093.81.569-.01 1.063-.25 1.495-.613.781-.654 1.546-1.33 2.317-1.996.006-.005.008-.016.011-.024h.028c.133.39.264.78.399 1.17.2.575.394 1.153.604 1.724.197.535.482 1.014.973 1.299.26.15.554.243.84.337.58.19 1.164.361 1.772.549-.023.103-.033.206-.07.297-.321.784-.677 1.554-.967 2.35-.68 1.87-.67 3.748.024 5.621.255.69.537 1.377.697 2.093.58 2.6.165 5.026-1.339 7.203-1.25 1.812-2.935 3.018-4.975 3.651-.847.263-1.727.413-2.592.615-.43.1-.861.197-1.29.303a.356.356 0 0 0-.166.108c-.456.51-.91 1.022-1.363 1.534-.03.034-.054.074-.089.121l-.541-.608c-.3-.339-.597-.682-.904-1.015a.543.543 0 0 0-.258-.155c-.966-.224-1.934-.441-2.903-.655-2.325-.511-4.253-1.71-5.729-3.67-.938-1.246-1.496-2.666-1.68-4.244-.191-1.64.046-3.213.665-4.73.262-.641.493-1.296.613-1.987a8.048 8.048 0 0 0-.489-4.488c-.301-.741-.617-1.476-.926-2.214-.013-.03-.032-.055-.049-.082v-.028z"/>
            <path d="M4.642 6.744l.051.134c.825 2.126 1.024 4.3.41 6.52-.205.74-.494 1.455-.736 2.185-.508 1.526-.52 3.059.03 4.57.698 1.919 2.036 3.198 3.791 4.035.835.398 1.731.57 2.62.763.7.152 1.403.299 2.103.453.428.095.809.283 1.089.653.015.02.036.036.073.072.079-.092.154-.174.223-.26.149-.183.343-.286.558-.352.224-.07.447-.147.675-.198 1.004-.222 2.014-.413 3.013-.657 1.787-.434 3.273-1.389 4.365-2.948 1.053-1.502 1.401-3.19 1.116-5.025-.11-.717-.36-1.39-.614-2.06-.403-1.069-.692-2.163-.741-3.317a10.625 10.625 0 0 1 .768-4.473c.013-.032.022-.066.032-.097-1.405-.48-2.254-1.527-2.775-2.917-2.074 1.827-4.733 1.499-6.629-.362-.246.2-.483.41-.738.594-.795.57-1.67.921-2.64.978-1.181.068-2.206-.362-3.128-1.105-.045-.036-.088-.073-.136-.113-.526 1.404-1.378 2.448-2.78 2.927M7.04 2.379c.278.24.534.476.807.691.594.469 1.231.86 1.968 1.025.776.174 1.522.031 2.241-.295.748-.339 1.378-.849 1.92-1.483l.067-.075c.244.241.476.492.73.716.66.585 1.406.993 2.268 1.153.791.147 1.53-.011 2.235-.39a7.562 7.562 0 0 0 1.71-1.28l.074-.072c.472 2.002 1.547 3.38 3.514 3.813-.199.526-.422 1.052-.599 1.594-.423 1.303-.593 2.64-.444 4.015.09.836.32 1.632.608 2.413.26.704.528 1.404.665 2.149.327 1.784.074 3.479-.758 5.065-1.084 2.065-2.75 3.375-4.91 3.98-.977.275-1.977.456-2.965.685-.36.084-.718.18-1.072.286a.611.611 0 0 0-.256.166c-.265.282-.52.575-.787.873-.156-.174-.323-.329-.451-.513-.293-.42-.696-.607-1.168-.703-.91-.185-1.817-.389-2.723-.592-.987-.22-1.939-.547-2.805-1.102-2.045-1.313-3.299-3.192-3.666-5.689-.194-1.318.005-2.59.446-3.833.262-.737.52-1.478.723-2.233.225-.837.244-1.704.184-2.57-.096-1.386-.486-2.687-1.07-3.929-.008-.016-.014-.033-.021-.052 1.998-.437 3.06-1.82 3.535-3.813"/>
            <path d="M18.673 12.39V8.286L16.95 9.642c.465.172.547.297.547.8V14.705c.04-.027.063-.04.083-.056 1.03-.81 2.062-1.619 3.09-2.432a.218.218 0 0 0 .067-.15c.004-.42.002-.84 0-1.259 0-.006-.01-.012-.022-.025l-2.043 1.605m-4.57 1.53v-2.035l-1.725 1.354c.472.178.55.295.55.81v4.264c.375-.295.723-.572 1.075-.843a.235.235 0 0 0 .101-.21c-.004-.585 0-1.171-.003-1.756 0-.088.02-.148.09-.203.37-.285.736-.576 1.104-.864.026-.02.057-.035.109-.067v1.994c.353-.278.682-.54 1.016-.796.075-.057.1-.116.1-.21-.002-1.737-.001-3.474-.002-5.212 0-.044-.004-.088-.007-.139-.025.01-.038.012-.049.02-.335.264-.671.525-1.002.794-.04.033-.06.113-.061.17a76.866 76.866 0 0 0 0 1.7c.003.151-.035.248-.157.339-.377.281-.743.579-1.14.89m-3.419 6.159c.394-.31.773-.606 1.147-.909.037-.03.062-.1.062-.153.003-1.76.003-3.52.002-5.28 0-.03-.007-.06-.014-.105-.352.277-.689.546-1.03.806-.08.06-.104.126-.104.225.003 1.047.002 2.095.002 3.142v.157l-.035.004-1.43-2.292-1.579 1.243c.13.079.266.135.37.23.146.133.155.33.154.522V22l.123-.088c.306-.24.61-.485.92-.72a.245.245 0 0 0 .107-.221c-.003-.93-.002-1.86-.002-2.79 0-.047.004-.096.008-.185l1.3 2.082m9.913-14.384a5.248 5.248 0 0 0 1.59 1.513c.07.042.092.082.065.167a11.339 11.339 0 0 0-.445 2.051c-.115.927-.115 1.854.007 2.78.017.13 0 .211-.109.296-3.626 2.847-7.249 5.697-10.872 8.547l-2.527 1.99c-.054.042-.096.083-.177.036-1.46-.843-2.534-2.03-2.999-3.74-.108-.4-.136-.825-.19-1.24-.007-.047.04-.121.082-.155 1.014-.802 2.03-1.6 3.046-2.398l10.566-8.313 1.902-1.496c.017-.014.037-.024.061-.038M22.074 13.628l.665 1.909c.196.563.364 1.135.417 1.736.134 1.534-.258 2.908-1.187 4.1a6.328 6.328 0 0 1-3.599 2.325c-.978.234-1.966.419-2.949.63-.237.052-.471.123-.706.186-.26.07-.476.217-.657.442-.396-.491-.964-.533-1.494-.653-.861-.196-1.73-.362-2.594-.544-.185-.039-.366-.093-.583-.15l12.687-9.98M5.093 16.405c.128-.386.25-.775.386-1.157.276-.772.556-1.544.712-2.355.305-1.595.256-3.18-.12-4.756-.063-.26-.142-.516-.206-.776-.01-.04.01-.115.038-.133.783-.473 1.392-1.129 1.864-1.93.004-.008.013-.013.025-.025.183.091.365.19.553.276 1.524.696 3.036.603 4.526-.11.382-.182.735-.434 1.097-.662.068-.043.11-.05.176 0 .889.665 1.87 1.096 2.96 1.207.387.039.781.001 1.172-.002.036 0 .071-.006.15-.013L5.134 16.426l-.04-.021"/>
        </g>
    </g>
</svg>
