<svg xmlns="http://www.w3.org/2000/svg" width="19" height="23" viewBox="0 0 19 23">
    <g fill="#E25" fill-rule="evenodd">
        <path d="M6.486 15.522c-.34-.237-.274-.22-.63-.07-1.682.705-5.268 2.315-5.268 2.315l3.301-4.082c-1.286-.918-2.559-1.85-3.915-2.819.206-.005 4.015-.007 5.81-.002.43 0 .353.011.595-.29 1.006-1.257 3.31-3.958 3.443-4.13-1.588 0-3.212.008-4.77.008-.008-.186-.021-3.76-.02-5.414.002-.761.235-1.002.963-1.002h11.853c.728 0 .956.239.956 1.004.001.93.003 1.859-.002 2.788-.004.645-.236.885-.858.885-2.543.002-5.086 0-7.629 0h-.493v6.13a848.531 848.531 0 0 1 6.197.02s-4.048 1.867-5.91 2.685c-.32.14-.32.14-.318.514.011 1.257-.002 2.501-.006 3.759-.112-.06-2.3-1.603-3.299-2.3zM17.822 17.822c.77 0 .981.199.982.924 0 .83.004 1.66-.002 2.49-.003.533-.242.767-.785.768-4.182.002-8.364 0-12.545 0-.05 0-.102.002-.267.001 1.645-1.427 3.218-2.812 4.8-4.184h7.817z"/>
    </g>
</svg>
