<?xml version="1.0" encoding="UTF-8"?>
<svg width="490px" height="543px" viewBox="0 0 490 543" version="1.1" xmlns="http://www.w3.org/2000/svg" xmlns:xlink="http://www.w3.org/1999/xlink">
    <!-- Generator: Sketch 48.1 (47250) - http://www.bohemiancoding.com/sketch -->
    <title>G</title>
    <desc>Created with Sketch.</desc>
    <defs></defs>
    <g id="Grand-Penguin" stroke="none" stroke-width="1" fill="none" fill-rule="evenodd" transform="translate(-73.000000, -115.000000)" opacity="0.03">
        <g id="NHL-Masthead" transform="translate(-2.000000, -8.000000)" fill="#FFFFFF">
            <g id="Group-2" transform="translate(75.000000, 123.000000)">
                <path d="M371.256854,269.69714 L489.006854,269.69714 L489.006854,455.69714 C437.006594,513.69743 365.007314,542.69714 273.006854,542.69714 C196.006469,542.69714 131.382115,517.197395 79.1318537,466.19714 C26.8815925,415.196885 0.756853715,350.822529 0.756853715,273.07214 C0.756853715,195.321751 27.3815875,130.4474 80.6318537,78.4471398 C133.88212,26.4468798 198.131477,0.447139806 273.381854,0.447139806 C348.63223,0.447139806 414.006576,25.1968923 469.506854,74.6971398 L408.756854,162.44714 C385.256736,141.947037 363.631952,127.822179 343.881854,120.07214 C324.131755,112.322101 302.756969,108.44714 279.756854,108.44714 C235.256631,108.44714 197.757006,123.571989 167.256854,153.82214 C136.756701,184.072291 121.506854,223.946892 121.506854,273.44714 C121.506854,322.947387 136.131707,362.571991 165.381854,392.32214 C194.632,422.072289 229.506651,436.94714 270.006854,436.94714 C310.507056,436.94714 344.256719,429.197217 371.256854,413.69714 L371.256854,269.69714 Z" id="G"></path>
            </g>
        </g>
    </g>
</svg>