<?xml version="1.0" encoding="UTF-8"?>
<svg width="16px" height="29px" viewBox="0 0 16 29" version="1.1" xmlns="http://www.w3.org/2000/svg" xmlns:xlink="http://www.w3.org/1999/xlink">
    <!-- Generator: Sketch 47.1 (45422) - http://www.bohemiancoding.com/sketch -->
    <title>grandpenguin_logo</title>
    <desc>Created with Sketch.</desc>
    <defs></defs>
    <g id="Small" stroke="none" stroke-width="1" fill="none" fill-rule="evenodd">
        <g id="Grand-Penguin" transform="translate(-122.000000, -242.000000)">
            <g id="grandpenguin_logo" transform="translate(122.000000, 242.000000)">
                <path d="M1,29 L0,15 L1,29 Z" id="Fill-1" fill="#927134"></path>
                <polygon id="Fill-2" fill="#916E20" points="0 15.0301205 1.50693069 29 2 28.9698795 0.493069307 15"></polygon>
                <g id="Group-16" fill="#927134">
                    <path d="M8.73432381,3.89386184 L7.92441905,4.27982989 C7.66841905,4.41153102 7.39870476,4.54779981 7.11222857,4.68406861 C6.88670476,4.79217011 6.6688,4.88885244 6.45470476,4.98096711 L5.5175619,5.42707613 C5.42994286,5.46894643 5.32251429,5.43240508 5.27984762,5.34638064 L5.14727619,5.07917199 C4.46765714,5.34485808 4.03108571,5.51614568 4.08899048,5.63338252 C4.14841905,5.75366447 4.72365714,5.78868327 5.50841905,5.64251786 C6.04632381,5.54202914 6.68099048,5.35703853 7.32022857,5.05176598 C7.92899048,4.76171898 8.45318095,4.41762124 8.86308571,4.09483929 C9.51146667,3.58249906 9.87032381,3.11888064 9.80860952,2.99403102 C9.75070476,2.87755545 9.33470476,3.08462312 8.69775238,3.42110808 L8.81660952,3.66014944 C8.85927619,3.74693515 8.82194286,3.85123026 8.73432381,3.89386184" id="Fill-3"></path>
                    <path d="M7.92441905,4.27975376 L6.45470476,4.98089098 C6.6688,4.88877632 6.88670476,4.79209398 7.11222857,4.68399248 C7.39870476,4.54848496 7.66841905,4.41145489 7.92441905,4.27975376" id="Fill-5"></path>
                    <path d="M5.14727619,5.07894361 C5.38346667,4.98682895 5.64784762,4.88253383 5.9320381,4.76605827 C6.25432381,4.63283459 6.59946667,4.48438534 6.95451429,4.3146203 C7.26460952,4.16693233 7.55870476,4.0177218 7.83299048,3.87612406 C8.15375238,3.71016541 8.44175238,3.55638722 8.69775238,3.4208797 L7.0695619,0.13824812 C7.02689524,0.051462406 6.92022857,0.0156823308 6.83184762,0.0567913534 L3.61584762,1.59076692 C3.52822857,1.6333985 3.49089524,1.73769361 3.5335619,1.82447932 L5.14727619,5.07894361 Z" id="Fill-7"></path>
                    <path d="M6.95459048,4.31469643 C6.59954286,4.48446147 6.2544,4.63291071 5.93211429,4.7661344 C5.64792381,4.88260996 5.38278095,4.98690508 5.14735238,5.07901974 L5.27992381,5.34622838 C5.32259048,5.4330141 5.43001905,5.46955545 5.5176381,5.42692387 L6.45478095,4.98081485 C6.33135238,5.03334305 6.20792381,5.0873938 6.08982857,5.13535432 C6.53630476,4.56820207 7.24030476,4.20964004 7.99078095,4.24542011 C7.96944762,4.25683929 7.94582857,4.26825846 7.92449524,4.27967763 L8.7344,3.89370959 C8.82201905,3.85183929 8.85935238,3.74678289 8.81668571,3.66075846 L8.69782857,3.42095583 C8.44182857,3.55646335 8.15382857,3.71024154 7.83306667,3.87620019 C7.55878095,4.01779793 7.26468571,4.16700846 6.95459048,4.31469643" id="Fill-9"></path>
                    <path d="M7.99108571,4.24557237 C7.24060952,4.20979229 6.53660952,4.56835432 6.09013333,5.13550658 C6.20822857,5.08678477 6.33165714,5.0334953 6.45432381,4.98096711 L7.9248,4.27982989 C7.94613333,4.26841071 7.96975238,4.25699154 7.99108571,4.24557237" id="Fill-11"></path>
                    <g id="Group-15" transform="translate(0.000000, 3.806391)">
                        <path d="M8.83405714,3.29839004 C8.39367619,3.29839004 8.03558095,2.94667951 8.03558095,2.51579605 C8.03558095,2.08339004 8.39367619,1.73244079 8.83405714,1.73244079 C9.2744381,1.73244079 9.63253333,2.08339004 9.63253333,2.51579605 C9.63253333,2.94667951 9.2744381,3.29839004 8.83405714,3.29839004 M13.5685333,9.28888816 C12.6481524,8.06246898 11.6294857,6.90456485 10.7380571,5.659875 C9.72853333,4.24998778 10.0934857,3.09056109 11.4892952,2.04075846 C11.8222476,1.79029793 12.163581,1.52461184 12.5331048,1.32896335 C12.7525333,1.21324906 13.8931048,0.714611842 13.8260571,0.530382519 C13.7506286,0.325598684 12.3616762,0.645335526 12.2359619,0.659799812 C11.3201524,0.767901316 10.4233905,0.984104323 9.50681905,0.784649436 C9.34377143,0.748869361 9.18224762,0.703953947 9.02148571,0.657515977 C8.61158095,0.981820489 8.08739048,1.32439568 7.47786667,1.61520395 C6.83862857,1.91971523 6.2039619,2.10546711 5.66681905,2.20519455 C5.61958095,2.40693327 5.59672381,2.61704605 5.6112,2.83477162 C5.76205714,5.15743139 5.30110476,7.25246898 3.7072,9.0848656 C2.66948571,10.2770273 2.02567619,11.7272622 1.52510476,13.2170836 C1.15253333,14.3224596 0.863009524,15.4506739 0.661866667,16.6572998 C1.55177143,16.345937 1.8519619,15.6326194 2.16205714,14.9535592 C2.51024762,14.1892359 3.08929524,13.6441607 3.73234286,13.1234464 C3.93881905,13.4941889 3.94415238,13.8291513 3.81767619,14.1930423 C3.57691429,14.8850442 3.3712,15.5884652 3.14567619,16.2857961 C2.80967619,17.3249408 2.65958095,18.3716983 2.99024762,19.4420555 C3.26834286,20.3464539 3.71634286,21.1747246 4.1544381,22.0113694 C4.50567619,22.6812942 4.41958095,22.8799878 3.72853333,23.1837378 C3.48472381,23.291078 3.24015238,23.4007021 2.9879619,23.4874878 C2.68853333,23.5894991 2.55139048,23.8194051 2.57958095,24.0896588 C2.61158095,24.4055893 2.89424762,24.404828 3.15634286,24.4025442 C3.49234286,24.3994991 3.86415238,24.3104295 4.08662857,24.6773656 C4.39291429,25.1843769 4.73653333,25.1645836 5.15253333,24.7885122 C5.42300952,24.5433806 5.72777143,24.3439258 6.12091429,24.6271212 C6.29005714,24.7489258 6.52167619,24.979593 6.71900952,24.72761 C6.90034286,24.4969427 6.78834286,24.2175536 6.60091429,24.0082021 C6.37310476,23.7539352 6.1079619,23.5308806 5.88777143,23.2697622 C5.67062857,23.0124502 5.59748571,22.7056551 5.91977143,22.481078 L5.94415238,22.4658524 C5.9152,22.3356739 5.87862857,22.1872246 5.82758095,22.0121306 C5.58986667,21.2006081 5.0504381,20.0868581 4.83481905,19.1466795 C4.61462857,18.1859464 4.74948571,17.1719239 4.95748571,16.0406645 C5.28891429,14.2440479 5.93272381,12.4854953 6.23062857,11.3671776 C6.68015238,9.68246898 7.34605714,8.2154859 8.28777143,8.2154859 C10.0020571,8.2154859 11.6660571,11.647328 11.6660571,15.5123374 C11.6660571,17.1429953 11.5913905,19.2349878 11.1769143,20.4241043 C10.9285333,21.1366607 10.3784381,22.1080517 10.1087238,22.7467641 C10.2169143,22.7543769 10.3182476,22.8000536 10.3921524,22.954593 C10.5552,23.2941231 10.6938667,23.6070085 10.3837714,23.939687 C10.2405333,24.0927039 10.1513905,24.2860686 10.1384381,24.4992265 C10.1262476,24.7017265 10.067581,24.9362002 10.3045333,25.0541983 C10.5262476,25.1645836 10.7319619,25.058766 10.866819,24.8928073 C11.2896762,24.3758994 11.7064381,24.4520273 12.1247238,24.8798656 C12.3281524,25.0869333 12.467581,25.1128167 12.6397714,24.8319051 C13.1289143,24.0340855 13.1372952,24.0394145 14.003581,24.2776945 C14.0858667,23.6351758 13.9205333,23.3542641 13.3209143,23.1860216 C12.9513905,23.0824878 12.5673905,23.0368111 12.1811048,23.0497528 C11.858819,23.0619333 11.7422476,22.8906457 11.7224381,22.5998374 C11.7003429,22.2861908 11.8519619,22.0692265 12.0683429,21.8629201 C12.6938667,21.2676006 13.0443429,20.5253543 13.2439619,19.7046964 C13.555581,18.4227039 13.5007238,17.1262472 13.4047238,15.8305517 C13.3612952,15.2496964 13.2889143,14.6703637 13.2119619,14.0933148 C13.1776762,13.8360028 13.3612952,13.7141983 13.5060571,13.5794521 C13.6401524,13.4553637 13.6927238,13.6190385 13.747581,13.7035404 C14.387581,14.684828 14.8812952,15.7079859 14.7494857,16.9237472 C14.7037714,17.3477791 14.7289143,17.7740949 14.9239619,18.2628355 C15.3125333,17.6774126 15.4123429,17.06839 15.5289143,16.4776382 C16.0637714,13.7751006 15.1746286,11.4288412 13.5685333,9.28888816" id="Fill-13"></path>
                    </g>
                </g>
            </g>
        </g>
    </g>
</svg>