<?xml version="1.0" standalone="yes"?>

<svg version="1.1" viewBox="0.0 0.0 960.0 720.0" fill="none" stroke="none" stroke-linecap="square" stroke-miterlimit="10" xmlns="http://www.w3.org/2000/svg" xmlns:xlink="http://www.w3.org/1999/xlink"><clipPath id="p.0"><path d="m0 0l960.0 0l0 720.0l-960.0 0l0 -720.0z" clip-rule="nonzero"></path></clipPath><g clip-path="url(#p.0)"><path fill="#000000" fill-opacity="0.0" d="m0 0l960.0 0l0 720.0l-960.0 0z" fill-rule="evenodd"></path><path fill="#000000" fill-opacity="0.0" d="m254.1181 119.755905l492.15747 0l0 540.3779l-492.15747 0z" fill-rule="evenodd"></path><path fill="#212121" d="m170.87138 -3.3752892E-6l0 719.81934l105.849686 0l0 -339.2873l415.7602 0l0 339.2873l105.84967 0l0 -719.81934l-105.84967 0l0 295.58746l-415.7602 0l0 -295.58746z" fill-rule="evenodd"></path><path stroke="#000000" stroke-width="1.0" stroke-linejoin="round" stroke-linecap="butt" d="m170.87138 -3.3752892E-6l0 719.81934l105.849686 0l0 -339.2873l415.7602 0l0 339.2873l105.84967 0l0 -719.81934l-105.84967 0l0 295.58746l-415.7602 0l0 -295.58746z" fill-rule="evenodd"></path></g></svg>