<?xml version="1.0" encoding="UTF-8"?>
<svg width="417px" height="525px" viewBox="0 0 417 525" version="1.1" xmlns="http://www.w3.org/2000/svg" xmlns:xlink="http://www.w3.org/1999/xlink">
    <!-- Generator: Sketch 48.1 (47250) - http://www.bohemiancoding.com/sketch -->
    <title>P</title>
    <desc>Created with Sketch.</desc>
    <defs></defs>
    <g id="PGA-Tour" stroke="none" stroke-width="1" fill="none" fill-rule="evenodd" transform="translate(-103.000000, -127.000000)" opacity="0.03">
        <g id="NHL-Masthead" transform="translate(-2.000000, 0.000000)" fill="#FFFFFF">
            <g id="Group-2" transform="translate(105.000000, 127.000000)">
                <path d="M361.881854,47.3221398 C398.632037,78.5722961 417.006854,126.571816 417.006854,191.32214 C417.006854,256.072464 398.132042,303.44699 360.381854,333.44714 C322.631665,363.44729 265.007241,378.44714 187.506854,378.44714 L117.756854,378.44714 L117.756854,524.69714 L0.756853715,524.69714 L0.756853715,0.447139806 L186.006854,0.447139806 C266.507256,0.447139806 325.13167,16.0719836 361.881854,47.3221398 Z M276.006854,253.57214 C290.006924,237.822061 297.006854,214.822291 297.006854,184.57214 C297.006854,154.321989 287.881945,132.822204 269.631854,120.07214 C251.381762,107.322076 223.007046,100.94714 184.506854,100.94714 L117.756854,100.94714 L117.756854,277.19714 L196.506854,277.19714 C235.507049,277.19714 262.006784,269.322219 276.006854,253.57214 Z" id="P"></path>
            </g>
        </g>
    </g>
</svg>